<svg width="48" height="49" viewBox="0 0 48 49" fill="none" xmlns="http://www.w3.org/2000/svg">
<path d="M24.0462 0.158691C30.4034 0.170917 36.496 2.70488 40.9869 7.20443C45.4778 11.704 48 17.8015 48 24.1587V24.251C47.9818 28.9938 46.5587 33.6248 43.9105 37.5594C41.2623 41.4941 37.5076 44.5558 33.1206 46.3582C28.7336 48.1605 23.911 48.6227 19.2615 47.6862C14.6121 46.7498 10.3443 44.4568 6.99709 41.0967C3.64986 37.7365 1.37323 33.46 0.45464 28.807C-0.463948 24.154 0.0166914 19.3331 1.83588 14.9531C3.65506 10.573 6.73122 6.83019 10.676 4.1971C14.6207 1.564 19.2572 0.158726 24 0.158691V0.158691H24.0462ZM24 38.6602C26.8701 38.651 29.6729 37.7904 32.0535 36.1873C34.4342 34.5842 36.2856 32.3107 37.3733 29.6547C38.461 26.9988 38.7362 24.0797 38.1639 21.2673C37.5916 18.4548 36.1977 15.8754 34.1586 13.8557C32.1194 11.836 29.5268 10.4668 26.709 9.92142C23.8912 9.37607 20.975 9.67913 18.3295 10.7922C15.6841 11.9053 13.4284 13.7784 11.8481 16.1742C10.2679 18.5701 9.43407 21.381 9.45232 24.251C9.46441 26.1554 9.85148 28.0387 10.5914 29.7935C11.3314 31.5483 12.4097 33.1402 13.7649 34.4782C15.1201 35.8162 16.7255 36.8742 18.4896 37.5918C20.2537 38.3093 22.1418 38.6724 24.0462 38.6602H24ZM19.3846 18.3987C19.3697 18.2528 19.3954 18.1056 19.4589 17.9735C19.5225 17.8413 19.6215 17.7294 19.7448 17.65C19.8681 17.5707 20.011 17.527 20.1576 17.5239C20.3042 17.5209 20.4488 17.5584 20.5754 17.6325L30.6646 23.3925C30.816 23.4551 30.9452 23.5615 31.0356 23.698C31.1261 23.8345 31.1737 23.9949 31.1723 24.1587C31.162 24.3196 31.1097 24.475 31.0206 24.6094C30.9315 24.7439 30.8088 24.8526 30.6646 24.9248L20.5662 30.6848C20.4401 30.7652 20.2896 30.7979 20.1416 30.7772C19.9351 30.7699 19.7398 30.6815 19.598 30.5312C19.4563 30.3808 19.3796 30.1806 19.3846 29.9741V18.3987Z" fill="#21DBAA"/>
</svg>
